# xmcd CD database file
#
# Track frame offsets:
#	187
#	14905
#	28295
#	42580
#	56947
#	72357
#	88395
#	103657
#	119470
#	135245
#
# Disc length: 2008 seconds
#
# Revision: 2
# Processed by: cddbd v1.4PL0 Copyright (c) Steve Scherf et al.
# Submitted via: CDex 1.50
#
DISCID=9b07d60a
DTITLE=Restless Heart - Matters Of The Heart
DYEAR=1994
DGENRE=Country
TTITLE0=In This Little Town
TTITLE1=Love Train
TTITLE2=Mind Over Matters Of The Heart
TTITLE3=Baby Needs New Shoes
TTITLE4=Hold You Now
TTITLE5=She's Still In Love
TTITLE6=You're A Stronger Man Than I Am
TTITLE7=Hometown Boy
TTITLE8=Sweet Whiskey Lies
TTITLE9=I'd Cross The Line
EXTD=YEAR: 1994
EXTT0=
EXTT1=
EXTT2=
EXTT3=
EXTT4=
EXTT5=
EXTT6=
EXTT7=
EXTT8=
EXTT9=
PLAYORDER=
